<svg width="24" height="23" viewBox="0 0 24 23" xmlns="http://www.w3.org/2000/svg" xmlns:xlink="http://www.w3.org/1999/xlink">
	<use xlink:href="#a" transform="translate(.8 .25)" fill="#FFF"/>
	<defs>
		<path id="a" d="M6.496 0h9.408A6.5 6.5 0 0 1 22.4 6.496v9.408a6.496 6.496 0 0 1-6.496 6.496H6.496A6.5 6.5 0 0 1 0 15.904V6.496A6.496 6.496 0 0 1 6.496 0zm-.224 2.24A4.032 4.032 0 0 0 2.24 6.272v9.856a4.03 4.03 0 0 0 4.032 4.032h9.856a4.032 4.032 0 0 0 4.032-4.032V6.272a4.03 4.03 0 0 0-4.032-4.032H6.272zM17.08 3.92a1.4 1.4 0 1 1 0 2.8 1.4 1.4 0 0 1 0-2.8zM11.2 5.6a5.6 5.6 0 1 1 0 11.2 5.6 5.6 0 0 1 0-11.2zm0 2.24a3.36 3.36 0 1 0 0 6.72 3.36 3.36 0 0 0 0-6.72z"/>
	</defs>
</svg>
