<svg
	width="20"
	height="17"
	viewBox="0 0 20 17"
	xmlns="http://www.w3.org/2000/svg"
	xmlns:xlink="http://www.w3.org/1999/xlink"
>
	<use xlink:href="#a" transform="translate(1 1)" fill="#6A6563"/>
	<defs>
		<path id="a" d="M0 1.161v-.5h-.5v.5H0zm0 13.936h-.5v.5H0v-.5zm18 0v.5h.5v-.5H18zM18 1.16h.5v-.5H18v.5zM3.194 0v-.5h-.5V0h.5zm1.741 0h.5v-.5h-.5V0zm0 2.323v.5h.5v-.5h-.5zm-1.741 0h-.5v.5h.5v-.5zM13.064 0v-.5h-.5V0h.5zm1.742 0h.5v-.5h-.5V0zm0 2.323v.5h.5v-.5h-.5zm-1.741 0h-.5v.5h.5v-.5zM2.613 5.226v-.5h-.5v.5h.5zm2.903 0h.5v-.5h-.5v.5zm0 2.903v.5h.5v-.5h-.5zm-2.903 0h-.5v.5h.5v-.5zm0 2.323v-.5h-.5v.5h.5zm2.903 0h.5v-.5h-.5v.5zm0 2.903v.5h.5v-.5h-.5zm-2.903 0h-.5v.5h.5v-.5zm9.87-8.13v-.5h-.5v.5h.5zm2.904 0h.5v-.5h-.5v.5zm0 2.904v.5h.5v-.5h-.5zm-2.903 0h-.5v.5h.5v-.5zm0 2.323v-.5h-.5v.5h.5zm2.903 0h.5v-.5h-.5v.5zm0 2.903v.5h.5v-.5h-.5zm-2.903 0h-.5v.5h.5v-.5zm-4.936-8.13v-.5h-.5v.5h.5zm2.904 0h.5v-.5h-.5v.5zm0 2.904v.5h.5v-.5h-.5zm-2.904 0h-.5v.5h.5v-.5zm0 2.323v-.5h-.5v.5h.5zm2.904 0h.5v-.5h-.5v.5zm0 2.903v.5h.5v-.5h-.5zm-2.904 0h-.5v.5h.5v-.5zM13.065.66h-8.13v1h8.13v-1zm-9.871 0H0v1h3.194v-1zm-3.694.5v13.936h1V1.16h-1zM0 15.597h18v-1H0v1zm18.5-.5V1.16h-1v13.936h1zM18 .66h-3.194v1H18v-1zM3.194.5h1.741v-1H3.194v1zM4.435 0v2.323h1V0h-1zm.5 1.823H3.194v1h1.741v-1zm-1.241.5V0h-1v2.323h1zM13.064.5h1.742v-1h-1.741v1zm1.242-.5v2.323h1V0h-1zm.5 1.823h-1.741v1h1.742v-1zm-1.241.5V0h-1v2.323h1zM2.613 5.726h2.903v-1H2.613v1zm2.403-.5v2.903h1V5.226h-1zm.5 2.403H2.613v1h2.903v-1zm-2.403.5V5.226h-1v2.903h1zm-.5 2.823h2.903v-1H2.613v1zm2.403-.5v2.903h1v-2.903h-1zm.5 2.403H2.613v1h2.903v-1zm-2.403.5v-2.903h-1v2.903h1zm9.37-7.63h2.904v-1h-2.903v1zm2.404-.5V8.13h1V5.226h-1zm.5 2.404h-2.903v1h2.903v-1zm-2.403.5V5.226h-1v2.903h1zm-.5 2.823h2.903v-1h-2.903v1zm2.403-.5v2.903h1v-2.903h-1zm.5 2.403h-2.903v1h2.903v-1zm-2.403.5v-2.903h-1v2.903h1zm-5.436-7.63h2.904v-1H7.548v1zm2.404-.5V8.13h1V5.226h-1zm.5 2.404H7.548v1h2.904v-1zm-2.404.5V5.226h-1v2.903h1zm-.5 2.823h2.904v-1H7.548v1zm2.404-.5v2.903h1v-2.903h-1zm.5 2.403H7.548v1h2.904v-1zm-2.404.5v-2.903h-1v2.903h1zM0 3.984h18v-1H0v1z"/>
	</defs>
</svg>
