<?xml version="1.0" standalone="no"?>
<!DOCTYPE svg PUBLIC "-//W3C//DTD SVG 20010904//EN"
 "http://www.w3.org/TR/2001/REC-SVG-20010904/DTD/svg10.dtd">
<svg version="1.0" xmlns="http://www.w3.org/2000/svg"
 width="685.000000pt" height="685.000000pt" viewBox="0 0 685.000000 685.000000"
 preserveAspectRatio="xMidYMid meet">
<metadata>
Created by potrace 1.11, written by Peter Selinger 2001-2013
</metadata>
<g transform="translate(0.000000,685.000000) scale(0.100000,-0.100000)"
fill="#000000" stroke="none">
<path d="M4864 5628 c-56 -12 -116 -66 -145 -130 -27 -61 -29 -143 -14 -533
13 -337 10 -910 -5 -910 0 0 -3 -25 -5 -55 -3 -30 -7 -66 -10 -80 -3 -14 -8
-39 -11 -57 -4 -29 -29 -149 -38 -183 -24 -87 -87 -224 -136 -295 -33 -48
-113 -130 -159 -165 -19 -14 -39 -29 -45 -35 -6 -5 -32 -26 -58 -46 -128 -97
-278 -236 -374 -344 -32 -38 -64 -73 -69 -79 -24 -25 -88 -130 -113 -184 -104
-226 -19 -412 248 -541 35 -17 69 -31 77 -31 7 0 13 -4 13 -9 0 -9 171 -67
225 -76 16 -2 41 -9 55 -14 14 -5 58 -19 98 -31 39 -13 72 -26 72 -31 0 -5 3
-8 8 -7 12 4 46 -25 70 -59 14 -20 22 -46 22 -73 0 -39 -5 -46 -75 -113 -86
-80 -168 -145 -205 -159 -26 -11 -46 -13 -205 -23 -54 -3 -111 -7 -125 -10
-14 -2 -54 -7 -90 -10 -55 -5 -86 -9 -132 -21 -5 -1 -11 -2 -15 -3 -16 -3 18
-24 44 -27 304 -38 1232 -32 1858 11 56 4 106 9 213 21 23 2 53 9 66 14 13 5
26 6 29 3 3 -2 14 0 24 5 16 10 15 12 -12 22 -16 6 -37 9 -47 7 -10 -3 -18 -2
-18 1 0 9 -59 11 -470 18 -190 3 -347 8 -349 10 -10 10 103 214 170 307 44 61
165 173 221 204 31 18 98 44 150 58 182 50 284 95 346 152 7 7 21 18 30 25 9
7 29 29 44 49 92 123 86 295 -14 444 -69 102 -111 138 -354 310 -31 22 -62 45
-68 50 -6 6 -38 30 -71 55 -33 25 -69 54 -81 65 -11 11 -36 34 -55 50 -19 17
-54 55 -79 85 -25 30 -48 57 -51 60 -34 27 -158 323 -175 418 -3 14 -7 29 -10
34 -5 8 -8 22 -18 79 -3 19 -8 45 -11 59 -3 14 -7 50 -10 80 -3 30 -8 73 -11
95 -12 96 -6 400 11 565 2 19 6 60 9 90 3 30 8 73 10 95 3 22 8 60 10 85 3 25
7 65 10 90 3 25 8 77 12 115 3 39 7 93 10 120 11 130 6 212 -16 261 -26 60
-55 92 -99 111 -47 20 -59 21 -107 11z m-7 -3759 c32 -10 53 -24 87 -55 6 -5
38 -32 71 -59 77 -63 77 -63 -29 -225 -31 -47 -56 -90 -56 -96 0 -26 -32 -34
-135 -37 -101 -2 -108 -1 -111 18 -3 21 -10 76 -19 160 -3 28 -8 66 -11 85 -8
55 -6 172 3 180 14 13 89 36 128 38 21 2 53 -2 72 -9z"/>
<path d="M2103 5549 c-118 -22 -182 -111 -218 -304 -20 -110 -27 -251 -31
-625 -2 -195 -6 -368 -8 -385 -10 -69 -18 -113 -33 -170 -8 -33 -16 -67 -18
-75 -2 -8 -13 -42 -25 -75 -12 -33 -25 -71 -29 -85 -8 -23 -52 -116 -71 -150
-5 -8 -26 -44 -46 -79 -20 -35 -44 -71 -53 -80 -9 -9 -28 -35 -43 -56 -34 -50
-173 -193 -257 -265 -35 -30 -69 -59 -75 -65 -6 -5 -29 -23 -51 -39 -22 -17
-42 -32 -45 -35 -3 -4 -27 -24 -55 -46 -81 -64 -160 -140 -236 -225 -43 -49
-93 -135 -115 -200 -27 -75 -27 -194 0 -245 9 -17 16 -36 16 -42 0 -7 4 -13 9
-13 5 0 12 -9 16 -19 9 -28 119 -140 196 -200 37 -28 69 -51 72 -51 3 0 33
-18 66 -40 33 -22 62 -40 65 -40 3 0 25 -14 49 -30 25 -17 48 -30 51 -30 4 0
23 -11 44 -23 20 -13 69 -41 107 -62 83 -45 250 -153 295 -192 50 -42 109
-121 105 -140 -2 -10 -4 -21 -4 -25 -1 -3 -22 -13 -48 -22 -47 -14 -108 -21
-284 -32 -47 -2 -103 -7 -125 -9 -21 -3 -70 -7 -109 -10 -38 -3 -83 -7 -100
-10 -16 -2 -48 -7 -70 -10 -65 -10 -115 -25 -115 -35 0 -6 8 -11 18 -11 9 -1
26 -3 37 -5 125 -19 785 -19 1145 0 52 3 147 8 210 11 206 11 388 25 520 40
25 3 65 8 90 10 25 3 61 10 80 16 69 21 67 19 48 30 -26 14 -197 23 -485 23
-288 1 -277 -2 -247 62 21 44 75 92 146 129 32 17 58 33 58 37 0 4 -15 7 -32
6 -42 -1 -144 28 -186 54 -49 30 -130 68 -145 68 -29 0 -37 22 -20 54 9 17 19
33 22 36 3 3 18 21 33 41 45 60 143 114 244 135 7 1 45 12 85 24 142 42 248
103 322 184 29 32 80 112 83 131 1 5 8 35 17 66 56 214 -69 445 -338 622 -153
100 -257 207 -352 362 -79 128 -116 318 -116 590 -1 165 17 469 38 648 27 229
139 309 324 231 79 -34 125 -45 198 -50 81 -5 94 8 37 35 -76 37 -192 184
-354 447 -47 77 -147 180 -192 199 -21 8 -38 13 -38 10 0 -3 -8 -2 -17 3 -10
5 -37 5 -60 1z m-28 -3709 c17 -18 18 -23 6 -57 -8 -21 -18 -44 -24 -51 -21
-26 -17 -54 12 -87 31 -35 111 -188 111 -211 0 -10 -17 -14 -62 -15 -141 -3
-146 -3 -202 26 -36 18 -42 27 -67 105 -34 102 -37 136 -9 145 19 6 70 100 70
129 0 45 123 57 165 16z"/>
</g>
</svg>
