<svg width="200" height="138" viewBox="0 0 110 76" xmlns="http://www.w3.org/2000/svg" xmlns:xlink="http://www.w3.org/1999/xlink"><g fill="#FFF"><use xlink:href="#a" transform="translate(1.224 50.237)"/><use xlink:href="#b" transform="translate(11.489 50.36)"/><use xlink:href="#c" transform="translate(21.113 50.36)"/><use xlink:href="#d" transform="translate(32.367 50.36)"/><use xlink:href="#e" transform="translate(41.932 50.36)"/><use xlink:href="#f" transform="translate(52.115 50.18)"/><use xlink:href="#g" transform="translate(61.429 50.36)"/><use xlink:href="#h" transform="translate(65.734 50.36)"/><use xlink:href="#i" transform="translate(75.987 50.36)"/><use xlink:href="#j" transform="translate(46.208 15.279)"/><use xlink:href="#k" transform="translate(25.75 15.758)"/><use xlink:href="#l" transform="translate(75.106 13.998)"/><use xlink:href="#m" transform="translate(0 12.867)"/><use xlink:href="#n" transform="translate(11.78 1.685)"/><use xlink:href="#o" transform="translate(66.281 6.642)"/><use xlink:href="#p" transform="translate(60.311 2.577)"/><use xlink:href="#q" transform="translate(49.668 .659)"/><use xlink:href="#r" transform="translate(30.059 .76)"/><use xlink:href="#s" transform="translate(41.191)"/></g><defs><path id="a" d="M3.683 9.417C1.26 8.774 0 7.069 0 4.474 0 2.99.222 2.348 1.088 1.409 2.05.346 2.94.049 5.363.025L7.637 0l.272 1.211c.247 1.186.173 1.854-.148 1.063C7.316 1.063 4.671.47 3.213 1.236.371 2.694 1.83 8.329 5.166 8.898c1.903.321 2.373-.42 2.2-3.337-.075-1.36-.198-1.804-.569-2.076-.445-.346-.346-.37 1.211-.395 1.631 0 1.68.024 1.31.444-.593.668-.593 5.117 0 5.784.37.42.297.445-2.051.42-1.335 0-2.966-.148-3.584-.321z"/><path id="b" d="M3.033 9.145c.445-.42.544-.79.544-2.175 0-1.607-.05-1.78-1.384-3.905C1.426 1.854.56.667.265.445-.23.025-.18 0 1.723.025c1.458 0 1.854.05 1.557.247-.247.123-.445.395-.445.544 0 .395 1.706 3.139 1.928 3.139.099 0 .618-.742 1.137-1.632.94-1.582.964-1.656.52-1.977C5.998.049 6.121 0 7.382 0H8.84l-.618.618C7.877.964 7.013 2.2 6.296 3.36 5.01 5.462 5.01 5.462 5.109 7.217c.074 1.335.198 1.804.569 2.076.42.297.271.346-1.36.346H2.49l.544-.494z"/><path id="c" d="M.205 9.195c.346-.396.42-1.088.42-4.375C.625 1.532.551.84.205.445-.165.025-.116 0 1.565 0c1.507 0 1.754.05 1.73.445-.05.445 1.458 3.262 1.73 3.262C5.32 3.683 6.903.89 6.879.445 6.829.049 7.052 0 8.46 0c1.557 0 1.607.025 1.236.445-.593.667-.618 7.81-.025 8.65l.371.544H8.386c-1.606 0-1.656-.024-1.236-.47.346-.395.396-.963.346-4.053l-.074-3.608L5.99 3.856c-.816 1.31-1.483 2.323-1.533 2.274-.024-.05-.642-1.113-1.334-2.348-.717-1.26-1.335-2.299-1.41-2.299-.049 0-.098 1.607-.098 3.584 0 3.262.05 3.633.494 4.078l.495.494h-1.41c-1.334 0-1.359-.024-.988-.444z"/><path id="d" d="M.494 9.145C.94 8.7.99 8.33.99 4.82.989 1.31.939.94.494.494L0 0h1.854c1.36 0 1.853.074 1.853.321 0 .173.791.964 1.73 1.755l1.73 1.409V2.2c0-.865-.148-1.459-.42-1.755C6.378.025 6.403 0 7.787 0c1.31 0 1.409.025.964.346-.42.321-.47.692-.47 4.449 0 3.782.025 4.103.494 4.449.47.346.396.37-.964.395-1.408 0-1.433-.024-1.062-.444.296-.322.42-.915.42-1.978V5.71L4.72 3.609C3.36 2.422 2.2 1.483 2.126 1.483c-.075 0-.149 1.631-.149 3.633 0 3.016.074 3.683.42 4.079.371.42.347.444-.988.444H0l.494-.494z"/><path id="e" d="M.519 9.096c.272-.322 1.186-2.348 2.002-4.499C3.683 1.582 3.955.593 3.757.346 3.534.049 3.757 0 5.14 0 6.5 0 6.747.05 6.524.321c-.198.272.074 1.286 1.112 4.276.742 2.15 1.533 4.177 1.73 4.499l.347.543H8.082c-1.582 0-1.631-.024-1.26-.444.543-.594.519-.99-.074-1.953-.495-.84-2.101-1.804-2.942-1.804-.543 0-1.186 1.186-1.433 2.694-.124.642-.05.914.296 1.161.42.297.272.346-1.112.346H0l.519-.543zM5.561 3.46c-.346-1.087-.717-1.977-.79-1.977-.198 0-1.212 2.917-1.039 3.065.074.074.37.148.643.148.296.025.79.173 1.137.37.346.199.642.347.667.372 0 0-.272-.89-.618-1.978z"/><path id="f" d="M1.705 9.646C.865 9.547.741 9.45.52 8.608a25.41 25.41 0 0 1-.37-1.78L0 5.989l.494.915c.89 1.582 2.447 2.372 4.128 2.076 1.112-.223 1.829-.94 1.829-1.83 0-.988-.643-1.482-2.818-2.174-1.038-.321-2.1-.717-2.372-.89C-.1 3.22.27.946 1.928.279 2.62-.018 3.164-.067 4.202.08c.766.124 1.582.173 1.804.148.445-.05.569.223.84 1.78l.173.964-.89-.964c-.815-.89-.963-.94-2.273-.964-1.088 0-1.483.099-1.706.445-.47.717.1 1.186 2.299 1.854 2.645.815 3.485 1.581 3.485 3.163 0 2.818-1.607 3.609-6.229 3.14z"/><path id="g" d="M.227 9.244c.47-.346.494-.667.494-4.424C.721 1.063.697.74.227.395-.218.05-.12.025 1.537 0h1.78l-.495.494c-.445.445-.494.816-.494 4.326 0 3.608.025 3.83.544 4.325l.543.494H1.562C-.12 9.615-.218 9.59.227 9.244z"/><path id="h" d="M2.348 9.22c-1.285-.693-1.335-.915-1.36-4.697C.989 1.335.94.94.495.494L0 0h3.46l-.519.519c-.494.494-.519.742-.42 3.856l.074 3.337.717.617c.989.84 2.694.692 3.534-.296.544-.593.569-.865.569-4.078 0-3.016-.05-3.46-.42-3.683C6.649.074 6.895.025 8.008 0c1.335 0 1.434.025.989.346-.42.321-.495.766-.593 3.905-.124 3.831-.297 4.4-1.483 5.018-.964.494-3.609.47-4.573-.05z"/><path id="i" d="M.202 9.195c.346-.396.42-1.088.42-4.375C.622 1.532.548.84.202.445-.168.025-.119 0 1.562 0c1.483 0 1.78.074 1.78.395 0 .47 1.482 3.312 1.73 3.312.296 0 1.977-3.09 1.853-3.386C6.851.074 7.271 0 8.532 0h1.73l-.52.519c-.469.47-.493.742-.42 4.424.075 3.584.124 3.955.57 4.301.444.346.345.37-1.36.37-1.706 0-1.805-.024-1.36-.37.445-.321.495-.717.569-4.128.074-2.892.025-3.682-.198-3.46-.173.148-.89 1.236-1.606 2.422-1.508 2.447-1.113 2.57-3.115-.865L1.735 1.36l-.074.99c-.05.543-.05 2.224 0 3.756.074 2.422.123 2.818.568 3.139.47.346.396.37-.964.395-1.409 0-1.433-.024-1.063-.444z"/><path id="j" d="M3.04 30.212c-1.409-.049-2.546-.173-2.546-.296 0-.272 1.286-.52 2.793-.52 1.557 0 3.14-.963 3.14-1.902 0-.643-.52-.915-3.362-1.78C.593 24.973 0 24.454 0 23.069c0-1.903 1.36-3.757 4.227-5.759 2.94-2.051 3.608-4.473 3.312-12.036C7.39 1.244 7.415.75 7.786.38c.692-.668 1.903-.42 2.323.47.297.617.297 1.062.074 2.718-.667 4.498-.198 10.776.915 12.235.247.346 1.36 1.285 2.496 2.1 2.57 1.854 3.485 2.967 3.633 4.375.124.99.05 1.187-.667 1.879-.42.445-.914.79-1.087.79-.198 0-1.113.396-2.052.866-1.236.618-1.928 1.162-2.496 1.953-.445.593-.791 1.136-.791 1.21 0 .05 1.384.198 3.09.297 3.015.173 4.028.445 2.669.717-.964.173-9.813.346-12.853.222zm6.328-1.78c.296-.395.519-.84.519-.963 0-.42-1.236-1.063-1.928-.989-.618.074-.668.173-.668 1.187 0 1.112.1 1.235 1.41 1.458.098 0 .395-.297.667-.692z"/><path id="k" d="M1.674 29.413c0-.322.643-.42 3.337-.618 1.21-.1 2.274-.223 2.348-.272.296-.322-.618-1.063-3.337-2.694C2.391 24.84.858 23.753.587 23.407c-.248-.347-.495-1.088-.569-1.681-.148-1.434.569-2.447 3.856-5.265 3.633-3.139 3.955-3.93 4.226-10.653C8.298.568 8.471 0 9.83 0c.767 0 1.088.173 1.805.964.47.544 1.013 1.236 1.162 1.557.172.297.642.94 1.087 1.409l.766.816-1.68-.173-1.657-.173-.346.84c-.47 1.087-.963 5.363-.766 6.55.495 2.867 1.236 3.93 3.88 5.56.718.446 1.335 1.088 1.681 1.78.544.99.569 1.162.272 2.15-.444 1.484-1.581 2.547-3.262 3.016-1.162.346-2.744 1.483-2.422 1.73.098.1 1.136.47 2.051.767.445.148.445.173-.05.667-.296.272-.543.593-.543.717 0 .148.816.247 1.804.247 2.052 0 2.892.173 2.892.618 0 .42-2.793.618-9.318.618-3.436 0-5.512-.1-5.512-.247zm8.157-1.162c0-.05-.173-.445-.396-.84-.198-.42-.321-.915-.247-1.113.074-.197.025-.346-.099-.346-.321 0-1.236 1.038-1.236 1.41 0 .568.915 1.284 1.458 1.136.297-.074.52-.173.52-.247z"/><path id="l" d="M3.95 9.916C2.986 9.644 1.8 8.68 1.206 7.74a7.221 7.221 0 0 0-.939-1.236c-.42-.395-.395-.494.445-1.953.494-.84.914-1.507.94-1.483.049.05-.05.544-.199 1.113-.346 1.384.025 2.694 1.063 3.707.989.964 2.027 1.211 2.818.692 1.063-.692 1.013-1.285-.223-3.658-1.31-2.496-1.408-3.41-.519-4.276C5.78-.563 7.41-.07 9.24 2.081l1.137 1.335-.643.963c-.939 1.434-.939 1.434-.865 0 .074-1.112 0-1.408-.593-2.1-.79-.964-1.532-1.286-2.126-.964-.642.32-.568.667.668 2.94.593 1.138 1.112 2.398 1.112 2.77 0 1.062-.741 2.1-1.854 2.644-1.112.543-1.186.543-2.125.247z"/><path id="m" d="M6.019 10.602c.124-.396-.272-1.038-1.73-2.768C1.224 4.2.829 3.804.186 3.954c-.396.098-.173-.223.79-1.088C2.93 1.11 3.919.493 5.229.146 8.565-.742 12 2.57 11.086 5.783c-.247.89-.692 1.459-2.348 2.99-2.447 2.225-2.941 2.547-2.719 1.83zM8.763 7.76c1.408-1.41 1.458-3.065.123-4.672-.79-.964-2.52-1.928-3.46-1.928-.791 0-2.645.915-2.818 1.384-.198.52-.099.692 2.398 3.535C6.192 7.463 7.354 8.575 7.55 8.575c.223 0 .767-.37 1.212-.815z"/><path id="n" d="M1.482 15.358c.197-1.483-.84-8.527-1.31-8.873-.346-.247-.223-.371.865-.915 1.433-.741 1.508-.766 1.508-.321 0 .37 5.931 5.833 6.698 6.204.346.173.593.123.89-.148.346-.371.296-.693-.668-3.832C8.205 3.445 8.007 2.95 7.562 2.95c-.766 0-.222-.445 1.112-.84a59.4 59.4 0 0 0 1.755-.593c.223-.074.297-.025.173.148-.173.297 2.323 1.582 3.708 1.928l.593.148-.445-1.186c-.247-.742-.668-1.31-1.014-1.508-.568-.272-.568-.296.445-.568a27.51 27.51 0 0 0 1.434-.42c.321-.124.321-.075.05.37-.272.42-.149.989.79 4.054.643 2.125 1.286 3.757 1.607 4.078l.544.544-1.137.37c-1.41.495-1.36.495-.989-.074.247-.395.223-.766-.124-1.829-.247-.741-.568-1.483-.741-1.606-.42-.371-5.66-2.546-5.883-2.472-.074.05.346 1.607.94 3.51.84 2.644 1.21 3.435 1.581 3.534.791.223.544.495-.692.816-.667.148-1.878.643-2.743 1.112-1.236.643-1.532.742-1.508.42.247-1.656-2.224-2.842-4.325-2.026-.544.197-.593.32-.47 1.161.247 1.854.495 2.422 1.063 2.72.544.271.52.296-.692.914l-1.236.618.124-.915zm3.238-5.61c.024-.025-.692-.717-1.582-1.508L1.482 6.78l.148.989c.099.544.173 1.285.173 1.656 0 .643 0 .667 1.434.52.766-.075 1.433-.174 1.483-.199z"/><path id="o" d="M4.272 10.623c-.543-.247-1.804-.964-2.793-1.582C-.102 8.052-.25 7.93.27 7.781c.84-.198 4.72-6.6 4.522-7.44-.148-.544-.024-.494 1.73.568 2.176 1.335 3.733 2.966 3.955 4.177.766 4.054-2.719 7.143-6.204 5.537zM6.917 9.56c.593-.296 1.557-1.656 1.903-2.645.618-1.853.025-3.707-1.433-4.572-.791-.445-.816-.445-1.236 0-.791.84-3.485 5.487-3.485 5.981 0 1.286 2.67 2.052 4.251 1.236z"/><path id="p" d="M1.123 10.363C-.04 9.918-.212 9.77.208 9.646c.52-.123 1.409-1.804 1.68-3.188C2.063 5.593 1.272 1.39.827.649.628.353.48.056.48.007c0-.05.791.173 1.755.519 1.458.519 1.68.667 1.236.816-.272.123-.52.346-.52.494 0 .865.619 3.435.816 3.435.124 0 .84-.519 1.582-1.136 1.014-.866 1.285-1.261 1.187-1.607-.149-.47-.124-.47.914-.074 1.31.519 1.706.84 1.013.84-.296 0-1.507.766-2.718 1.68-2.101 1.657-2.2 1.756-2.769 3.461-.519 1.458-.568 1.804-.296 2.126.42.519.222.47-1.557-.198z"/><path id="q" d="M7.539 10.773c-.124-.05-.569-.148-.94-.247-.593-.124-.667-.198-.42-.494.396-.47.173-1.656-.618-3.46-.568-1.261-.667-1.36-1.458-1.36-.84 0-.865.025-1.137 1.434-.148.766-.321 1.557-.395 1.754-.05.198.074.618.296.964.37.569.37.618 0 .47-.222-.074-.94-.223-1.631-.321C.568 9.413 0 9.29 0 9.24c0-.074.222-.297.47-.52.346-.296.642-1.359 1.112-3.707.692-3.485.79-4.745.395-4.745-.123 0-.247-.1-.247-.223 0-.296 5.932.915 6.624 1.36 1.137.741.47 2.52-1.21 3.114l-.693.247.445.915c.272.494.667 1.63.89 2.52.197.866.494 1.83.618 2.151.197.445.148.544-.198.519-.223 0-.52-.05-.667-.099zM5.462 4.2c1.904-.643 2.324-1.953.84-2.596-1.853-.766-2.323-.47-2.718 1.83-.148.988-.148 1.037.445 1.037.321 0 .964-.123 1.433-.271z"/><path id="r" d="M1.196 9.487c.42-.322.42-.47 0-4.252C.85 2.22.652 1.231.306.885.059.638-.064.391.034.317c.52-.322 5.215-.445 6.08-.148 2.793.914 4.202 4.3 2.867 6.895-.741 1.459-1.78 1.978-4.869 2.373-3.386.445-3.51.47-2.916.05zM6.83 7.633C8.388 6.05 7.845 2.59 5.793 1.23 4.78.564 2.951.441 2.605 1.034c-.223.42.494 6.772.815 7.29.124.199.593.273 1.41.199.963-.1 1.408-.297 2.001-.89z"/><path id="s" d="M2.2 9.653c-2.398-.1-2.423-.1-1.978-.594.371-.395.445-1.087.544-4.449C.865.952.84.631.42.285 0-.036.321-.06 3.41.087 5.315.161 6.946.31 7.045.41c.074.074.247.716.346 1.384l.173 1.236-.667-.791C6.13 1.348 4.844.854 3.534.978c-.766.073-.865.172-.939.84-.074.642.025.815.494.939.915.247 1.384.173 1.805-.247.222-.223.42-.371.47-.322.049.05.148.766.246 1.582.149 1.434.149 1.458-.222.816-.222-.396-.667-.742-1.063-.84-1.829-.371-1.705-.42-1.878.815-.247 1.804-.173 3.658.148 3.98.42.42 2.546.37 3.386-.05.371-.198 1.038-.766 1.483-1.26.915-1.063.94-.915.173 1.013l-.593 1.458-1.211.025c-.643 0-2.274-.025-3.633-.074z"/></defs></svg>
